<?xml version="1.0" encoding="UTF-8" standalone="no"?>
<!DOCTYPE svg PUBLIC "-//W3C//DTD SVG 1.1//EN" "http://www.w3.org/Graphics/SVG/1.1/DTD/svg11.dtd">
<!-- Created with Vectornator (http://vectornator.io/) -->
<svg height="100%" stroke-miterlimit="10" style="fill-rule:nonzero;clip-rule:evenodd;stroke-linecap:round;stroke-linejoin:round;" version="1.1" viewBox="0 0 310 510" width="100%" xml:space="preserve" xmlns="http://www.w3.org/2000/svg" xmlns:vectornator="http://vectornator.io" xmlns:xlink="http://www.w3.org/1999/xlink">
<defs/>
<g id="Layer-2" vectornator:layerName="Layer 2">
<g opacity="1"/>
<path d="M226.159 47.7932L239.537 62.119C239.537 62.119 241.594 73.7434 241.076 79.8781C240.248 89.7048 194.144 108.978 162.344 124.868C184.473 150.925 241.892 258.898 292.062 354.692C318.178 406.344 274.948 497.308 274.948 497.308L86.206 504.499L85.3823 486.995L109.063 449.518L118.508 375.555L85.6633 337.64C85.6633 337.64 68.5587 448.273 54.645 491.314C46.7343 507.475 9.52136 500.335 16.9027 492.198C5.95721 482.248 34.3289 460.082 34.3289 460.082C34.3289 460.082 57.9927 231.461 73.2647 127.666C72.797 127.893 97.4705 79.2542 97.4705 79.2542L70.5373 37.3203C70.5373 37.3203 86.6498 9.19105 120.359 5.92507C154.069 2.65908 169.116 41.2677 169.116 41.2677L226.159 47.7932Z" fill="#e5ddc7" fill-rule="evenodd" opacity="1" stroke="none"/>
<path d="M224.734 237.074C220.634 235.903 222.976 243.565 226.045 241.882C228.728 240.41 229.996 235.311 225.936 234.67C222.716 234.162 219.992 237.063 220.8 240.133C221.152 241.47 223.798 243.251 225.171 242.647C226.82 241.921 228.001 241.588 228.449 239.696C229.125 236.843 226.274 232.222 222.876 233.468C217.933 235.281 222.322 249.494 228.34 242.21C231.972 237.812 225.671 233.098 221.783 236.528C220.801 237.394 220.513 238.597 220.254 239.806C220.004 240.969 219.351 242.067 219.598 243.302C220.28 246.711 225.558 248.295 228.449 248.657C229.382 248.773 230.944 249.41 231.836 248.875C233.743 247.731 232.663 245.605 231.509 244.286C228.372 240.701 225.81 236.873 223.86 232.485C223.588 231.873 222.367 227.712 220.909 228.442C218.586 229.603 218.487 232.577 218.287 234.779C218.121 236.603 217.723 238.75 218.178 240.571C219.172 244.548 222.638 247.551 226.482 248.438C227.452 248.662 229.28 249.224 230.197 248.766" fill="#1c2121" fill-rule="evenodd" opacity="1" stroke="#1c2121" stroke-linecap="round" stroke-linejoin="round" stroke-width="7.13"/>
<path d="M189.442 164.275C188.894 164.275 187.882 162.609 187.552 162.279C185.89 160.617 183.862 159.127 182.089 157.552C176.35 152.45 170.477 147.436 164.336 142.74C161.712 140.733 159.448 138.283 156.878 136.227C154.587 134.394 152.631 132.086 150.575 130.029C150.04 129.494 148.946 128.257 149.63 127.403C151.099 125.566 154.901 125.008 157.088 124.462C161.187 123.437 164.516 121.368 168.328 119.735C169.717 119.139 171.276 118.733 172.635 118.054C175.408 116.667 178.537 115.613 181.564 115.007C182.568 114.807 183.814 114.302 184.715 113.852C185.025 113.697 185.349 113.587 185.661 113.432C185.676 113.424 186.212 113.144 186.186 113.222C185.687 114.718 181.13 115.12 179.673 115.953C176.273 117.896 172.671 119.457 169.273 121.31C166.412 122.871 163.658 124.373 160.554 125.407C158.432 126.115 156.199 126.863 154.147 127.718C153.929 127.809 152.197 128.226 152.361 128.664C153.031 130.452 156.745 133.147 158.243 134.441C163.233 138.75 168.14 143.115 173.16 147.362C174.75 148.707 176.594 150.028 178.412 151.039C178.44 151.054 180.198 151.985 180.408 151.459C180.626 150.915 177.2 145.815 176.627 145.051C174.05 141.615 171.689 138.252 169.694 134.441C168.518 132.196 167.65 128.73 165.597 127.088C163.846 125.687 160.552 127.194 158.874 128.033C158.008 128.466 158.4 128.446 157.613 128.559C157.544 128.568 157.403 128.488 157.403 128.559C157.403 129.706 159.801 131.848 160.449 132.55C162.572 134.85 165.158 136.769 167.488 138.853C168.915 140.131 170.301 141.569 171.9 142.635C172.33 142.922 173.073 143.85 173.265 143.37C173.731 142.206 170.921 139.247 170.429 138.538C168.324 135.507 166.553 132.2 164.126 129.399C163.789 129.01 162.679 127.408 162.13 127.298C161.063 127.085 161.852 129.388 161.92 129.504C162.294 130.14 166.962 136.2 166.962 134.861" fill="#1c2121" fill-rule="evenodd" opacity="1" stroke="#1c2121" stroke-linecap="round" stroke-linejoin="round" stroke-width="7.13"/>
<path d="M168.86 175.74C165.373 175.74 167.501 182.737 170.552 180.413C173.725 177.995 170.452 174.101 167.248 174.29C166.969 174.306 166.641 174.333 166.443 174.531C164.592 176.382 164.546 183.354 168.376 182.588C171.704 181.922 174.261 177.584 171.68 174.692C170.424 173.287 169.067 172.67 167.248 172.356C167.02 172.317 165.908 172.376 165.718 172.437C162.577 173.436 162.137 179.014 163.22 181.54C164.068 183.518 166.278 184.344 168.215 184.602C175.832 185.618 178.513 170.95 169.746 169.697C166.706 169.263 162.799 172.338 162.253 175.337C161.892 177.325 162.432 179.231 163.542 180.896C164.098 181.73 164.999 182.768 165.959 183.152C166.75 183.468 167.803 183.152 168.618 183.152" fill="#1c2121" fill-rule="evenodd" opacity="1" stroke="#1c2121" stroke-linecap="round" stroke-linejoin="round" stroke-width="7.13"/>
<path d="M70.5428 401.359C69.8708 402.199 69.4486 402.931 69.3307 404.086C69.2515 404.863 70.4263 406.489 71.2499 405.5C72.3046 404.235 73.5902 400.481 71.4014 399.591C68.7741 398.524 65.2993 400.869 65.7954 403.783C66.0083 405.034 67.4051 406.305 68.7246 405.904C71.605 405.03 72.1024 402.233 71.8559 399.49C71.7728 398.566 71.1924 397.605 70.4418 397.066C69.1725 396.155 67.3208 396.189 65.8964 396.511C61.6575 397.468 63.2077 406.976 68.0176 405.702C71.0404 404.902 72.9094 399.498 71.0478 397.016C69.9391 395.537 66.5371 394.858 64.8358 395.45C63.2015 396.019 62.7227 397.086 62.0581 398.581C59.8275 403.6 61.9139 406.923 65.1894 410.854C66.1869 412.051 67.455 413.479 69.1287 413.632C71.3989 413.838 71.2817 410.158 71.5024 408.834C72.1486 404.956 73.3205 400.512 73.3205 396.612C73.3205 395.437 73.3796 393.213 72.0074 392.723C70.7696 392.281 68.9705 392.989 67.7651 393.278C61.0983 394.878 59.7583 399.547 61.9066 405.753C62.3283 406.971 64.6965 411.355 66.3509 410.803" fill="#1c2121" fill-rule="evenodd" opacity="1" stroke="#1c2121" stroke-linecap="round" stroke-linejoin="round" stroke-width="7.13"/>
<path d="M163.221 247.255C162.77 247.03 162.579 245.985 162.251 245.933C160.527 245.661 160.342 246.444 159.872 248.136C159.478 249.552 160.469 250.697 161.722 251.397C162.071 251.592 162.558 251.296 162.868 251.045C163.71 250.363 163.958 248.385 164.014 247.608C164.193 245.1 162.073 244.37 159.96 243.994C159.579 243.927 159.072 243.882 158.814 244.171C156.779 246.449 157.869 249.621 159.255 251.838C159.408 252.083 159.76 252.163 160.048 252.19C161.291 252.309 163.152 251.118 164.102 250.516C164.455 250.292 164.854 250.079 165.071 249.723C167.94 245.028 164.088 240.49 158.99 242.144C158.593 242.272 158.304 242.629 158.021 242.937C153.319 248.047 158.559 256.527 165.071 255.804C167.076 255.581 169.109 253.564 170.271 252.014C172.232 249.399 171.037 245.757 169.39 243.377C166.136 238.678 158.204 237.551 154.848 242.584C153.441 244.696 152.411 247.887 152.998 250.428C153.662 253.308 159.059 256.234 161.811 256.509C164.143 256.742 165.708 255.538 167.539 254.394" fill="#1c2121" fill-rule="evenodd" opacity="1" stroke="#1c2121" stroke-linecap="round" stroke-linejoin="round" stroke-width="7.13"/>
<path d="M137.358 328.181C134.906 325.729 132.711 333.19 136.672 333.066C137.9 333.028 138.443 331.238 138.815 330.066C139.578 327.659 136.951 325.899 135.129 325.352C131.158 324.161 129.274 331.373 132.472 333.066C138.03 336.008 139.29 327.881 135.815 326.552C129.079 323.977 128.671 332.493 130.672 336.495C130.935 337.021 131.077 337.661 131.529 338.037C132.808 339.103 133.871 338.934 135.386 339.237C142.442 340.648 147.022 329.602 143.7 324.067C141.498 320.397 135.102 318.866 131.872 322.095C130.888 323.08 130.39 324.96 130.072 326.295C129.897 327.031 129.067 331.632 129.301 331.866" fill="#1c2121" fill-rule="evenodd" opacity="1" stroke="#1c2121" stroke-linecap="round" stroke-linejoin="round" stroke-width="7.13"/>
<path d="M263.237 310.804C262.987 310.577 263.148 309.948 262.817 309.882C261.005 309.519 261.266 311.84 261.224 312.816C261.161 314.309 262.752 315.471 263.907 313.906C264.759 312.753 265.506 310.753 265.249 309.211C264.925 307.27 262.019 305.816 260.47 307.366C258.24 309.596 258.204 311.678 259.715 314.409C260.363 315.581 262.912 315.857 263.823 315.08C266.36 312.916 265.728 308.498 263.32 306.528C261.98 305.431 260.506 305.821 258.876 306.025C258.526 306.069 258.135 306.125 257.87 306.36C253.898 309.891 254.251 317.455 260.218 318.35C262.607 318.709 264.185 316.194 264.662 314.242C265.948 308.981 265.075 306.816 261.308 303.258C260.916 302.888 260.926 302.61 260.386 302.419C258.214 301.653 257.374 303.059 255.69 303.845C251.132 305.972 250.113 316.245 253.426 319.859C257.941 324.785 270.638 322.66 268.1 314.409C267.518 312.52 265.88 312.685 264.41 311.894C263.94 311.641 263.631 311.163 263.237 310.804Z" fill="#1c2121" fill-rule="evenodd" opacity="1" stroke="#1c2121" stroke-linecap="round" stroke-linejoin="round" stroke-width="7.13"/>
<path d="M217.766 370.912C215.902 370.912 215.747 375.696 217.314 376.057C219.067 376.462 220.373 373.567 220.744 372.808C221.392 371.482 220.138 370.284 219.12 369.739C214.968 367.514 212.845 375.453 215.419 376.418C216.555 376.844 218.681 376.43 219.661 375.786C222.42 373.974 221.699 371.085 220.564 368.475C220.393 368.083 220.129 367.682 219.751 367.482C213.525 364.186 212.04 373.362 214.065 377.411C217.67 384.621 228.064 378.873 226.882 372.176C226.097 367.729 221.63 363.336 216.773 364.955C214.751 365.629 212.778 367.39 211.447 369.017C210.332 370.38 209.344 371.683 209.191 373.53C208.767 378.614 215.287 382.684 219.842 381.383C221.06 381.035 222.755 380.228 223.543 379.216C224.165 378.416 224.405 377.698 225.348 377.321" fill="#1c2121" fill-rule="evenodd" opacity="1" stroke="#1c2121" stroke-linecap="round" stroke-linejoin="round" stroke-width="7.13"/>
<path d="M187.805 423.378C186.47 422.711 186.781 425.808 187.106 426.35C187.884 427.647 189.724 425.687 189.99 425.388C190.945 424.313 190.873 422.848 190.077 421.718C189.616 421.061 187.375 421.037 186.756 421.281C184.276 422.258 183.254 425.307 185.358 427.311C185.914 427.84 187.109 428.112 187.805 428.01C191.169 427.518 191.989 424.853 191.913 421.805C191.899 421.241 191.617 420.023 191.214 419.62C190.111 418.518 189.631 418.559 188.33 418.397C187.282 418.266 185.196 418.156 184.397 419.096C182.607 421.201 181.175 425.84 182.649 428.447C186.363 435.019 196.471 432.123 197.069 424.951C198.117 412.378 180.444 412.164 178.891 423.815C177.996 430.523 185.317 435.284 191.126 432.38C193.262 431.312 194.361 428.617 195.059 426.524" fill="#1c2121" fill-rule="evenodd" opacity="1" stroke="#1c2121" stroke-linecap="round" stroke-linejoin="round" stroke-width="7.13"/>
<path d="M263.275 433.13C261.476 430.432 259.828 434.548 262.487 435.951C262.777 436.104 263.16 436.055 263.471 435.951C263.909 435.805 264.326 435.555 264.652 435.229C267.544 432.337 263.548 428.197 260.454 430.178C257.679 431.954 259.928 438.057 263.406 436.869C266.038 435.971 266.339 433.993 266.751 431.424C267.26 428.26 264.253 427.32 261.7 428.079C257.406 429.355 257.197 438.056 260.65 440.215C261.407 440.688 263.625 440.58 264.521 440.412C269.726 439.436 271.725 432.39 268.982 428.275C267.699 426.351 264.792 423.649 262.159 424.864C259.03 426.308 256.543 428.513 256.058 432.146C255.436 436.817 258.234 440.942 263.406 440.018C264.443 439.833 265.288 438.918 266.095 438.313" fill="#1c2121" fill-rule="evenodd" opacity="1" stroke="#1c2121" stroke-linecap="round" stroke-linejoin="round" stroke-width="7.13"/>
<path d="M235.406 488.94C235.165 488.967 234.125 489.003 233.913 489.302C233.042 490.533 231.343 493.528 233.777 494.413C236.967 495.573 239.726 492.994 238.526 489.755C238.372 489.337 238.24 488.858 237.893 488.579C235.895 486.967 232.882 487.034 231.697 489.619C231.175 490.758 231.486 492.032 231.742 493.192C231.841 493.639 232.474 494.783 232.873 495.046C236.939 497.734 239.361 493.811 240.517 490.343C240.989 488.925 240.395 486.66 239.974 485.458C239.863 485.142 239.623 484.88 239.386 484.644C238.74 483.998 237.503 483.624 236.763 483.377C235.482 482.95 234.492 483.258 233.28 483.875C230.249 485.418 230.182 490.542 231.652 493.102C231.806 493.371 231.986 493.646 232.24 493.825C234.515 495.437 238.035 495.124 239.476 492.468C240.475 490.628 240.64 488.498 240.833 486.453C240.935 485.375 240.821 483.888 240.109 483.015C238.79 481.396 237.344 480.188 235.27 479.759C233.472 479.387 231.682 480.664 230.611 481.93C230.088 482.549 229.417 482.925 228.938 483.603C227.21 486.051 226.671 489.165 227.762 491.971C228.433 493.697 231.087 493.783 232.601 494.097C234.836 494.559 238.053 494.541 239.838 492.875C240.44 492.313 240.81 491.632 241.376 491.066C242.313 490.129 242.988 488.39 243.049 487.041C243.205 483.618 239.986 480.047 236.582 479.804C235.969 479.76 234.945 479.311 234.32 479.623C232.568 480.499 231.615 481.646 230.792 483.423C230.442 484.179 229.889 485.419 230.023 486.227" fill="#1c2121" fill-rule="evenodd" opacity="1" stroke="#1c2121" stroke-linecap="round" stroke-linejoin="round" stroke-width="7.13"/>
<path d="M152.827 488.559C151.545 488.345 151.601 489.76 152.091 490.766C152.486 491.577 152.966 492.392 153.655 492.974C155.111 494.203 156.525 491.989 157.149 491.226C157.58 490.7 157.643 489.7 157.333 489.111C156.984 488.447 155.648 488.059 155.126 487.915C149.884 486.469 149.7 494.406 153.563 494.905C155.295 495.128 156.686 494.311 158.161 493.433C159.808 492.453 159.597 490.383 159.54 488.651C159.454 486 156.593 484.252 154.298 483.777C150.89 483.072 150.196 485.7 148.872 488.191C147.001 491.715 146.629 494.17 148.78 497.756C149.369 498.736 149.548 499.16 150.528 499.595C154.76 501.476 159.818 499.672 162.115 495.733C164.147 492.249 163.852 486.441 159.448 484.973C156.664 484.045 151.38 484.305 149.148 486.536C145.556 490.129 144.838 495.524 149.424 498.859C151.719 500.528 154.356 499.682 156.965 500.055" fill="#1c2121" fill-rule="evenodd" opacity="1" stroke="#1c2121" stroke-linecap="round" stroke-linejoin="round" stroke-width="7.13"/>
<path d="M15.0617 487.464C13.5135 485.141 13.072 490.045 13.1129 490.66C13.2124 492.151 14.8125 495.964 17.0105 494.557C18.2954 493.735 18.6663 491.552 18.7255 490.192C18.8592 487.117 17.4996 485.816 14.3602 485.749C14.0463 485.742 13.7599 485.958 13.5027 486.139C12.1982 487.052 12.2555 488.423 12.2555 490.114C12.2555 492.683 14.5222 497.084 17.7121 496.272C19.6652 495.775 21.1897 495.31 21.7656 493.232C22.1787 491.741 22.3892 490.18 22.3892 488.633C22.3892 487.604 21.5734 484.702 20.7522 483.8C19.7442 482.693 16.8334 480.124 14.8279 481.461C10.2747 484.497 12.7628 496.554 18.8814 496.194C21.0597 496.066 21.8653 493.276 22.3112 491.595C22.9758 489.09 23.3822 486.212 22.8569 483.644C22.26 480.726 19.3004 478.897 16.6987 480.604C15.176 481.603 15.0363 484.426 15.0617 485.905C15.1085 488.618 16.6525 493.435 19.0373 495.025C19.904 495.603 22.7254 496.83 23.8703 496.194C28.4175 493.668 31.5123 485.05 27.612 480.76C26.714 479.772 25.6112 479.543 24.4159 479.045C23.3614 478.605 22.4167 478.302 21.2199 478.421C19.5372 478.59 18.3709 479.066 16.8546 479.824" fill="#1c2121" fill-rule="evenodd" opacity="1" stroke="#1c2121" stroke-linecap="round" stroke-linejoin="round" stroke-width="7.13"/>
<path d="M55.1279 313.955C53.8524 312.679 54.2847 319 55.9549 317.728C57.7837 316.334 56.9551 313.685 55.0245 313.024C53.0137 312.336 52.2256 318.18 53.5773 318.968C56.9148 320.915 59.1733 314.472 55.6965 314.472C54.7787 314.472 53.0821 315.869 52.5952 316.281C51.1385 317.513 50.9763 320.361 51.0963 322.121C51.1005 322.183 51.2815 323.189 51.4064 323.362C52.2196 324.488 54.9276 324.515 56.2133 324.447C57.3645 324.387 59.6595 321.564 60.2966 320.726C61.5615 319.061 62.2234 317.27 62.4674 315.195C62.8281 312.13 60.8963 308.84 58.5909 307.029C57.7453 306.364 55.9054 305.734 54.9728 306.667C54.3257 307.314 54.1222 308.509 53.8874 309.355C53.6808 310.098 53.6807 310.859 53.6807 311.629C53.6807 312.855 53.9651 314.105 54.4043 315.247" fill="#1c2121" fill-rule="evenodd" opacity="1" stroke="#1c2121" stroke-linecap="round" stroke-linejoin="round" stroke-width="7.13"/>
<path d="M91.5999 211.463C90.455 212.379 90.281 213.548 90.5813 215.142C90.6831 215.682 91.0056 216.207 91.4301 216.556C93.0316 217.875 95.9211 213.009 93.8068 211.577C90.9561 209.645 89.0721 213.81 89.3364 215.99C89.5117 217.437 91.6056 217.922 92.5619 218.084C93.0329 218.164 94.405 217.442 94.6556 217.066C95.2873 216.118 95.7851 215.077 96.1835 214.01C96.9585 211.935 96.371 209.74 94.7688 208.238C94.4881 207.975 94.0214 207.993 93.6371 208.011C88.3051 208.261 86.8686 214.351 89.5061 218.367C90.3543 219.659 92.2599 220.267 93.5239 220.744C93.9049 220.887 94.3168 221.124 94.7122 221.027C99.259 219.909 101.934 211.813 98.6168 208.294C97.931 207.567 96.2103 206.975 95.5045 206.71C92.0175 205.402 87.818 206.944 86.224 210.332C84.7996 213.359 84.5168 217.721 88.148 219.216C88.9686 219.554 92.6104 220.362 93.4673 219.895C95.4823 218.796 96.3108 216.694 96.9192 214.632C98.0273 210.877 96.9633 207.206 93.3541 205.522C92.6394 205.188 92.0133 204.765 91.2038 204.729C88.5656 204.615 86.6895 206.346 85.3186 208.464C83.4336 211.377 82.2873 214.13 84.0737 217.405C84.469 218.13 85.1981 218.564 85.6582 219.216C86.6915 220.68 87.9778 222.257 89.8457 222.724C90.3554 222.852 90.9841 222.657 91.4867 222.611C93.9782 222.385 93.9063 222.205 96.0138 220.8C97.7713 219.629 99.354 218.421 100.371 216.5C102.998 211.538 100.938 205.239 95.5045 203.428C90.8934 201.891 85.5645 204.614 84.0171 209.256C83.022 212.242 83.5277 216.814 85.0357 219.555C85.5179 220.432 86.5934 221.006 87.3558 221.593C88.1218 222.182 88.6042 222.971 89.5627 223.29C94.8716 225.06 99.5744 220.377 101.503 215.877C102.184 214.288 102.647 212.915 102.069 211.18C101.302 208.882 99.886 207.096 98.1641 205.465C97.5261 204.861 96.4567 203.77 95.844 204.843" fill="#1c2121" fill-rule="evenodd" opacity="1" stroke="#1c2121" stroke-linecap="round" stroke-linejoin="round" stroke-width="7.13"/>
<path d="M108.128 144.411C107.797 143.969 108.415 145.486 108.666 145.978C108.81 146.261 109.21 147.003 109.695 146.56C110.232 146.07 110.759 144.784 110.456 144.053C110.133 143.272 108.197 142.798 107.681 143.605C106.738 145.08 108.214 145.992 109.337 146.47C109.585 146.576 109.901 146.633 110.143 146.515C112.141 145.539 112.033 141.331 109.919 140.83C109.091 140.634 108.211 140.626 107.367 140.74C102.963 141.338 107.156 147.709 109.606 147.231C110.654 147.027 111.549 144.992 111.844 144.366C112.869 142.194 110.106 138.277 107.636 138.771C106.969 138.904 106.143 139.812 105.622 140.203C103.471 141.816 102.244 144.895 102.891 147.589C103.187 148.824 104.526 149.907 105.308 150.857C106.335 152.104 107.574 153.658 109.337 153.498C113.837 153.089 115.962 148.692 114.977 144.59C114.73 143.561 113.937 142.798 113.455 141.904C112.49 140.112 110.898 137.905 108.666 137.607C104.076 136.995 101.245 143.173 102.13 147.007C102.485 148.544 103.853 149.524 104.95 150.499C105.59 151.068 106.597 152.245 107.502 152.245" fill="#1c2121" fill-rule="evenodd" opacity="1" stroke="#1c2121" stroke-linecap="round" stroke-linejoin="round" stroke-width="7.13"/>
<path d="M214.746 91.7653C213.643 91.7653 213.493 93.5247 213.409 94.2568C213.329 94.952 214.321 96.2009 215.111 95.5937C215.758 95.0959 216.353 94.5067 216.812 93.8314C217.061 93.4656 217.223 92.9953 217.177 92.5553C217.115 91.9679 216.894 91.3621 216.508 90.9145C215.481 89.7216 213.11 90.1569 212.254 91.2184C211.618 92.0076 212.409 94.0166 212.558 94.4391C212.678 94.7764 213.242 95.4136 213.652 95.4722C217.9 96.0791 218.259 89.7031 215.293 87.8153C210.232 84.5948 206.412 95.2065 209.884 97.356C213.523 99.6082 217.24 97.2534 219.972 94.6822C221.542 93.2046 222.364 90.5174 220.701 88.7269C219.119 87.0225 216.554 84.9379 214.138 84.7769C212.667 84.6788 211.192 85.6227 210.006 86.3569C207.304 88.0298 206.074 89.2039 205.874 92.6161C205.799 93.8901 206.392 100.212 208.304 100.212" fill="#1c2121" fill-rule="evenodd" opacity="1" stroke="#1c2121" stroke-linecap="round" stroke-linejoin="round" stroke-width="7.13"/>
<path d="M219.753 47.0644C219.553 47.4639 220.023 48.5121 220.049 49.0182C220.177 51.4533 220.79 52.567 221.47 54.8796C223.338 61.2305 228.014 66.3561 234.259 68.4377C235.933 68.996 238.975 70.1691 240.653 68.9705C241.913 68.0705 240.77 65.4232 240.475 64.4117C239.651 61.585 238.612 57.5774 236.627 55.294C235.935 54.4979 234.676 53.8641 233.785 53.3402C230.935 51.6636 227.476 50.3207 224.134 50.3207" fill="#1c2121" fill-rule="evenodd" opacity="1" stroke="#1c2121" stroke-linecap="round" stroke-linejoin="round" stroke-width="7.13"/>
<path d="M163.741 77.0978C162.476 74.9908 158.641 78.5154 161.469 80.9081C161.678 81.0844 162.002 81.066 162.275 81.0546C165.834 80.9063 166.538 75.2091 161.836 75.4858C159.445 75.6264 157.968 82.0953 161.396 82.6666C162.11 82.7857 162.816 81.8821 163.228 81.4942C165.16 79.6752 165.593 78.0273 165.499 75.4858C165.475 74.8353 165.66 73.6078 165.06 73.141C160.938 69.9354 155.198 75.5846 155.534 79.9555C155.85 84.0633 159.406 86.9568 163.448 85.7441C165.495 85.1299 168.867 81.2108 169.529 79.2228C171.1 74.5113 166.066 70.8925 161.909 72.1152C160.1 72.6471 157.584 74.7465 158.099 76.8047" fill="#1c2121" fill-rule="evenodd" opacity="1" stroke="#1c2121" stroke-linecap="round" stroke-linejoin="round" stroke-width="7.13"/>
<path d="M112.7 8.69499C112.7 8.52548 111.9 10.7013 111.811 11.2826C111.581 12.7749 111.205 14.571 111.487 16.0534C112.116 19.3559 118.243 24.2601 121.676 23.5735C126.214 22.6659 128.637 18.9 129.843 14.6787C130.366 12.8461 130.408 10.2388 128.873 8.85672C125.188 5.54095 119.229 8.01126 118.441 12.7381C118.196 14.2137 118.886 17.4988 121.11 16.9428C121.554 16.8317 122.609 15.8302 122.727 15.7299" fill="#1c2121" fill-rule="evenodd" opacity="1" stroke="#1c2121" stroke-linecap="round" stroke-linejoin="round" stroke-width="7.13"/>
<path d="M103.332 76.1933C103.094 76.0743 105.083 76.2711 105.445 76.3498C106.915 76.6694 107.88 77.097 108.811 78.3065C109.529 79.24 109.751 80.3542 110.141 81.4372C111.334 84.7508 111.773 88.4069 109.202 91.299C107.138 93.6211 104.093 95.6534 100.906 94.7428C100.162 94.5303 98.7257 93.6708 98.5577 92.8644C97.8152 89.3004 99.2116 86.5864 101.61 83.9418C102.706 82.7338 104.533 82.0613 105.993 82.9243C106.602 83.2839 107.127 85.0633 107.167 85.2724C107.354 86.2338 106.295 87.5099 105.837 88.0118C105.487 88.3942 105.027 87.3122 104.819 86.8378" fill="#1c2121" fill-rule="evenodd" opacity="1" stroke="#1c2121" stroke-linecap="round" stroke-linejoin="round" stroke-width="7.13"/>
<path d="M149.603 48.3204L149.404 48.42L149.404 48.2209L149.305 48.0218L149.305 48.0218" fill="#1c2121" fill-rule="evenodd" opacity="1" stroke="#1c2121" stroke-linecap="round" stroke-linejoin="round" stroke-width="7.13"/>
<path d="M133.875 57.0804L133.676 56.6822L133.477 56.4831L133.079 56.6822L133.079 57.0804L133.079 57.379L133.477 57.5781L133.775 57.4786L133.775 57.2795L133.875 57.0804L133.875 57.0804" fill="#1c2121" fill-rule="evenodd" opacity="1" stroke="#1c2121" stroke-linecap="round" stroke-linejoin="round" stroke-width="7.13"/>
<path d="M71.2022 36.1539C48.7688 36.7994 38.9932 54.3928 35.9895 81.5036C32.9858 108.614 47.6308 136.898 60.8874 138.413C73.3363 139.836 97.7203 108.437 100.724 81.3258C103.728 54.2149 95.9223 35.4425 71.2022 36.1539Z" fill="#1c2121" fill-rule="evenodd" opacity="1" stroke="#1c2121" stroke-linecap="round" stroke-linejoin="round" stroke-width="7.13"/>
<path d="M122.066 488.6C151.694 477.361 196.444 473.888 196.444 473.888C196.444 473.888 132.651 448.863 156.258 389.649C180.778 328.144 219.942 328.81 219.942 328.81" fill="none" fill-rule="evenodd" opacity="1" stroke="#1c2121" stroke-linecap="round" stroke-linejoin="round" stroke-width="7.13"/>
<path d="M181.504 300.562L117.096 504.054" fill="none" fill-rule="evenodd" opacity="1" stroke="#1c2121" stroke-linecap="round" stroke-linejoin="round" stroke-width="7.13"/>
<path d="M87.6479 337.414L117.353 376.221" fill="none" fill-rule="evenodd" opacity="1" stroke="#1c2121" stroke-linecap="round" stroke-linejoin="round" stroke-width="7.13"/>
<path d="M99.271 266.498C99.271 266.498 63.4731 484.203 52.9551 495.824C47.3791 501.984 14.0252 502.476 10.4525 497.548C6.81312 492.528 9.22054 487.323 11.5613 481.533C13.5913 476.511 32.2582 465.394 35.1822 459.963C38.1745 454.405 56.1751 221.766 74.4187 133.82C75.7183 127.554 48.53 59.6061 70.5209 34.7007C120.235-21.6016 163.798 19.1593 169.517 40.9847C170.248 40.9898 234.905 44.8002 240.028 52.3312C242.557 56.0488 241.89 72.0537 241.649 78.6715C241.265 89.234 167.71 123.026 167.71 123.026C167.71 123.026 186.181 154.831 290.475 350.747C320.103 406.405 276.176 495.833 276.176 495.833C276.176 495.833 90.9861 507.529 87.4658 503.868C80.5959 496.724 88.4325 482.201 88.7207 481.833C96.8616 471.424 108.985 452.379 108.985 452.379L132.547 273.774" fill="none" fill-rule="evenodd" opacity="1" stroke="#1c2121" stroke-linecap="round" stroke-linejoin="round" stroke-width="7.13"/>
</g>
</svg>
